<?xml version="1.0" encoding="iso-8859-1"?>
<!-- Generator: Adobe Illustrator 19.2.0, SVG Export Plug-In . SVG Version: 6.00 Build 0)  -->
<svg xmlns="http://www.w3.org/2000/svg" xmlns:xlink="http://www.w3.org/1999/xlink" version="1.1" id="Layer_1" x="0px" y="0px" viewBox="0 0 40 40" style="enable-background:new 0 0 40 40;" xml:space="preserve">
<rect x="3" y="3" style="fill:#DFF0FE;" width="33" height="27"/>
<g>
	<g>
		<path style="fill:#98CCFD;" d="M16,38.5c-0.827,0-1.5-0.673-1.5-1.5V23c0-0.827,0.673-1.5,1.5-1.5h4.25l2.25-3h8l2.25,3H37    c0.827,0,1.5,0.673,1.5,1.5v14c0,0.827-0.673,1.5-1.5,1.5H16z"/>
	</g>
	<g>
		<path style="fill:#4788C7;" d="M30.25,19l1.95,2.6l0.3,0.4H33h4c0.551,0,1,0.449,1,1v14c0,0.551-0.449,1-1,1H16    c-0.551,0-1-0.449-1-1V23c0-0.551,0.449-1,1-1h4h0.5l0.3-0.4l1.95-2.6H30.25 M30.75,18h-8.5L20,21h-4c-1.105,0-2,0.895-2,2v14    c0,1.105,0.895,2,2,2h21c1.105,0,2-0.895,2-2V23c0-1.105-0.895-2-2-2h-4L30.75,18L30.75,18z"/>
	</g>
</g>
<g>
	<circle style="fill:#DFF0FE;" cx="26.5" cy="29.5" r="6"/>
	<g>
		<path style="fill:#4788C7;" d="M26.5,24c3.033,0,5.5,2.467,5.5,5.5S29.533,35,26.5,35S21,32.533,21,29.5S23.467,24,26.5,24     M26.5,23c-3.59,0-6.5,2.91-6.5,6.5s2.91,6.5,6.5,6.5s6.5-2.91,6.5-6.5S30.09,23,26.5,23L26.5,23z"/>
	</g>
</g>
<path style="fill:#4788C7;" d="M35.5,25h-1c-0.276,0-0.5-0.224-0.5-0.5l0,0c0-0.276,0.224-0.5,0.5-0.5h1c0.276,0,0.5,0.224,0.5,0.5  l0,0C36,24.776,35.776,25,35.5,25z"/>
<path style="fill:#4788C7;" d="M5.5,4h-2C3.225,4,3,3.775,3,3.5v0C3,3.225,3.225,3,3.5,3h2C5.775,3,6,3.225,6,3.5v0  C6,3.775,5.775,4,5.5,4z"/>
<path style="fill:#4788C7;" d="M11.5,4h-2C9.225,4,9,3.775,9,3.5v0C9,3.225,9.225,3,9.5,3h2C11.775,3,12,3.225,12,3.5v0  C12,3.775,11.775,4,11.5,4z"/>
<path style="fill:#4788C7;" d="M5.5,30h-2C3.225,30,3,29.775,3,29.5l0,0C3,29.225,3.225,29,3.5,29h2C5.775,29,6,29.225,6,29.5l0,0  C6,29.775,5.775,30,5.5,30z"/>
<path style="fill:#4788C7;" d="M11.5,30h-2C9.225,30,9,29.775,9,29.5l0,0C9,29.225,9.225,29,9.5,29h2c0.275,0,0.5,0.225,0.5,0.5l0,0  C12,29.775,11.775,30,11.5,30z"/>
<path style="fill:#4788C7;" d="M17.5,4h-2C15.225,4,15,3.775,15,3.5v0C15,3.225,15.225,3,15.5,3h2C17.775,3,18,3.225,18,3.5v0  C18,3.775,17.775,4,17.5,4z"/>
<path style="fill:#4788C7;" d="M23.5,4h-2C21.225,4,21,3.775,21,3.5v0C21,3.225,21.225,3,21.5,3h2C23.775,3,24,3.225,24,3.5v0  C24,3.775,23.775,4,23.5,4z"/>
<path style="fill:#4788C7;" d="M29.5,4h-2C27.225,4,27,3.775,27,3.5v0C27,3.225,27.225,3,27.5,3h2C29.775,3,30,3.225,30,3.5v0  C30,3.775,29.775,4,29.5,4z"/>
<path style="fill:#4788C7;" d="M35.5,4h-2C33.225,4,33,3.775,33,3.5v0C33,3.225,33.225,3,33.5,3h2C35.775,3,36,3.225,36,3.5v0  C36,3.775,35.775,4,35.5,4z"/>
<path style="fill:#4788C7;" d="M3.5,12L3.5,12C3.225,12,3,11.775,3,11.5v-2C3,9.225,3.225,9,3.5,9h0C3.775,9,4,9.225,4,9.5v2  C4,11.775,3.775,12,3.5,12z"/>
<path style="fill:#4788C7;" d="M3.5,6L3.5,6C3.225,6,3,5.775,3,5.5v-2C3,3.225,3.225,3,3.5,3h0C3.775,3,4,3.225,4,3.5v2  C4,5.775,3.775,6,3.5,6z"/>
<path style="fill:#4788C7;" d="M3.5,24L3.5,24C3.225,24,3,23.775,3,23.5v-2C3,21.225,3.225,21,3.5,21h0C3.775,21,4,21.225,4,21.5v2  C4,23.775,3.775,24,3.5,24z"/>
<path style="fill:#4788C7;" d="M3.5,30L3.5,30C3.225,30,3,29.775,3,29.5v-2C3,27.225,3.225,27,3.5,27h0C3.775,27,4,27.225,4,27.5v2  C4,29.775,3.775,30,3.5,30z"/>
<path style="fill:#4788C7;" d="M3.5,18L3.5,18C3.225,18,3,17.775,3,17.5v-2C3,15.225,3.225,15,3.5,15h0C3.775,15,4,15.225,4,15.5v2  C4,17.775,3.775,18,3.5,18z"/>
<path style="fill:#4788C7;" d="M35.5,12L35.5,12c-0.275,0-0.5-0.225-0.5-0.5v-2C35,9.225,35.225,9,35.5,9l0,0  C35.775,9,36,9.225,36,9.5v2C36,11.775,35.775,12,35.5,12z"/>
<path style="fill:#4788C7;" d="M35.5,6L35.5,6C35.225,6,35,5.775,35,5.5v-2C35,3.225,35.225,3,35.5,3l0,0C35.775,3,36,3.225,36,3.5  v2C36,5.775,35.775,6,35.5,6z"/>
<path style="fill:#4788C7;" d="M35.5,18L35.5,18c-0.275,0-0.5-0.225-0.5-0.5v-2c0-0.275,0.225-0.5,0.5-0.5l0,0  c0.275,0,0.5,0.225,0.5,0.5v2C36,17.775,35.775,18,35.5,18z"/>
<rect x="3" y="3" style="fill:#4788C7;" width="1" height="1"/>
<rect x="35" y="3" style="fill:#4788C7;" width="1" height="1"/>
<rect x="3" y="29" style="fill:#4788C7;" width="1" height="1"/>
</svg>
